<?xml version="1.0" encoding="UTF-8"?>
<svg id="Layer_1" data-name="Layer 1" xmlns="http://www.w3.org/2000/svg" viewBox="0 0 160 160">
  <defs>
    <style>
      .cls-1 {
        fill: #1a1a2e;
      }

      .cls-2 {
        fill: #6b2737;
      }

      .cls-3 {
        fill: #2d2d44;
      }

      .cls-4 {
        fill: #e0d8cc;
      }

      .cls-5 {
        fill: #cea664;
      }
    </style>
  </defs>
  <path class="cls-1" d="M88.47,151.6c-1.19-.51-2.39-.42-3.42.24l-2.63,1.67c-.99.63-2.23.72-3.23.1l-2.64-1.66c-1.11-.7-2.33-.88-3.56-.36l-2.72,1.16c-1.1.47-2.35.44-3.24-.36l-2.35-2.09c-.93-.83-2.05-1.28-3.31-.98l-3,.73c-1.32.32-2.53-.08-3.39-1.15l-1.91-2.38c-.72-.9-1.75-1.42-2.92-1.34l-3.16.21c-1.22.08-2.36-.42-2.96-1.49l-1.66-2.93c-.61-1.07-1.62-1.65-2.85-1.76l-2.88-.27c-1.26-.12-2.31-.84-2.74-2.02l-1.16-3.16c-.39-1.06-1.26-1.82-2.35-2.11l-2.95-.78c-1.24-.33-2.15-1.22-2.4-2.51l-.62-3.28c-.22-1.16-1.05-2.02-2.09-2.49l-2.77-1.25c-1.21-.55-1.84-1.67-1.85-2.97l-.02-2.91c-.01-1.21-.53-2.27-1.54-2.95l-2.57-1.73c-1.06-.72-1.58-1.79-1.47-3.08l.38-2.47c1.39.72,2.73,1.26,4.27,1.64,7.95,18.42,23.52,32.62,42.64,38.78,17.1,5.47,35.73,4.17,51.87-3.72,14.08-6.91,25.44-18.35,32.22-32.46,2.27-.64,3.98-1.95,5.48-3.74l.38,2.42c-.04,1.12-.57,2.01-1.5,2.64l-2.56,1.72c-1.03.69-1.53,1.75-1.53,2.97l-.02,2.79c0,1.41-.68,2.54-1.97,3.12l-2.76,1.25c-1.12.51-1.84,1.48-2.06,2.68l-.56,3.05c-.22,1.23-1.11,2.15-2.29,2.47l-2.95.79c-1.17.31-2.09,1.1-2.5,2.24l-1.06,2.96c-.44,1.23-1.5,2-2.8,2.12l-2.89.27c-1.16.11-2.19.65-2.78,1.68l-1.66,2.93c-.63,1.11-1.76,1.66-3.03,1.58l-3.16-.21c-1.19-.08-2.2.44-2.92,1.34l-1.98,2.46c-.83,1.03-2.06,1.37-3.32,1.06l-3.01-.73c-1.16-.28-2.28.08-3.14.85l-2.11,1.91c-1,.91-2.29,1.25-3.57.7l-2.75-1.18Z"/>
  <path class="cls-3" d="M140.06,110.3l.05,2.53-1.64,1.04c.29.53.44.94.28,1.49-.11.39-.58.7-1.15.86-12.77,19.48-34.11,31.14-57.55,30.91s-45.73-13.01-57.93-33.66c-.48-.2-.89-.54-.98-.87-.14-.55-.03-.91.36-1.44l-1.61-1.06.05-2.63,2.18,1.42-.03,1.92c.58.08.94.21,1.29.44.51.33.04,1.1.28,1.52,6.49,11.07,16.07,20.04,27.56,25.8,9.83,4.93,20.75,7.23,31.73,6.88,21.79-.7,41.48-12,53.29-30.17.02-.46.07-1.05.35-1.32.31-.31.78-.37,1.32-.39v-1.95s2.17-1.32,2.17-1.32Z"/>
  <path class="cls-1" d="M104.53,13.97c-14.48-5.27-30.31-5.56-44.91-.93-18.42,5.84-33.57,19.18-41.83,36.55-2.08.52-3.84,1.46-5.46,2.78-.27-1.03-.3-1.95-.07-2.93.41-.65.91-1.22,1.55-1.64l2.33-1.55c1.01-.67,1.52-1.75,1.53-2.94l.03-2.92c.01-1.27.6-2.39,1.76-2.91l2.57-1.16c1.22-.55,2.17-1.39,2.42-2.75l.58-3.17c.24-1.28,1.17-2.18,2.4-2.51l2.85-.75c1.13-.3,2.05-1.03,2.46-2.15l1.15-3.16c.43-1.19,1.49-1.91,2.75-2.02l2.88-.26c1.22-.11,2.24-.7,2.85-1.76l1.66-2.93c.61-1.07,1.74-1.58,2.96-1.49l3.16.21c1.19.08,2.19-.44,2.93-1.34l1.98-2.45c.83-1.03,2.06-1.38,3.32-1.07l2.88.71c1.3.32,2.45-.08,3.44-.96l2.43-2.15c.8-.71,1.96-.8,2.94-.38l2.82,1.2c1.32.56,2.57.38,3.76-.37l2.64-1.66c.86-.54,1.99-.54,2.85,0l2.56,1.61c1.19.74,2.43,1.03,3.74.47l2.71-1.16c1.32-.57,2.62-.29,3.67.67l2.1,1.91c.85.77,1.98,1.13,3.14.85l3.01-.73c1.26-.3,2.49.03,3.32,1.06l1.98,2.46c.73.9,1.73,1.42,2.92,1.34l3.16-.21c1.23-.08,2.36.42,2.97,1.49l1.72,3c.59,1.04,1.62,1.58,2.79,1.68l2.88.26c1.36.12,2.4.94,2.85,2.22l.97,2.76c.42,1.19,1.32,2.02,2.54,2.35l2.84.74c1.23.32,2.16,1.22,2.4,2.51l.56,3.04c.21,1.15.89,2.13,1.97,2.63l2.95,1.35c1.14.53,1.84,1.57,1.85,2.82l.04,2.9c.02,1.29.45,2.39,1.53,3.12l2.57,1.73c.98.66,1.65,1.71,1.46,2.93l-.37,2.43c-.14.92-.2,1.82,0,2.76l-3.22-1.55c-7.19-18.75-22.23-33.65-41.21-40.56Z"/>
  <path class="cls-3" d="M106.27,18.37c-16.51-6.9-35.29-6.81-51.73.26-12.23,5.26-22.53,14.16-29.68,25.33.09.5.06,1.07-.23,1.36-.36.36-.82.45-1.4.46v1.93s-2.26,1.34-2.26,1.34l.06-2.61,1.62-.97c-.26-.53-.41-.94-.25-1.47.1-.33.53-.66,1.02-.86,7.08-11.04,17.11-19.92,29.08-25.4,17.43-7.98,37.65-8.17,55.23-.54,13.98,6.07,25.46,16.75,32.72,30.1.47.21.83.53.95.9.16.51-.03.92-.4,1.47l1.59,1.12-.2,2.57-2.1-1.48.09-1.95c-.63-.1-.96-.22-1.29-.49-.23-.5-.27-.87-.15-1.48-7.21-13.24-18.72-23.78-32.66-29.61Z"/>
  <path class="cls-1" d="M100.71,35.8c-12.48-5.72-26.88-5.8-39.34-.29-11.14,4.92-19.9,13.81-24.8,25.1-.37-6.8-5.38-11.17-12.11-12.2,10.98-19.84,31.43-32.48,54.16-33.19,26.21-.86,50.1,14.18,60.82,38.17l-7.08-.99c-4.09-.35-8.12-.4-12.19-.26-4.95-7.07-11.59-12.72-19.45-16.33Z"/>
  <path class="cls-3" d="M106.88,115.12c3.88-2.88,6.21-10.25,3.94-14.86-.79-1.59-2.35-3.09-3.7-2.4-.41.21-.89.79-.83,1.32.09.77.84.95,1.54.93-.7.65-1.7,1.07-2.64.73-1.2-.44-1.88-1.64-1.92-2.84s.67-2.37,1.81-2.95c3.27-1.67,6.96.15,8.15,3.55,1.39,3.97,1.01,8.12-1.11,11.97,3.55-2.96,5.52-7.4,5.24-12.08-.05-.85-.26-1.6-.62-2.33,1.33-.45,2.45.29,3.02,1.58.43-3.99-.78-8.33-4.97-9.2,1.24-.85,2.76-.95,4.21-.67,2.2.44,3.8,2.07,4.25,4.27.73,3.61-.77,7.41-2.58,10.59s-4.29,5.98-6.87,8.64c-18.39,18.93-48.75,18.66-66.72-.61-.55-.03-1.03-.26-1.22-.6-.28-.5-.25-.89.02-1.57l-1.75-.71-.42-2.61,2.39.99.29,1.87c.53.03,1,.05,1.37.28.31.2.53.72.45,1.11,15.2,16.49,40.62,19.03,58.67,5.6Z"/>
  <path class="cls-3" d="M45.41,58.32c.03.7.17,1.33.46,2.01-1.19.4-2.41-.31-2.91-1.75-.64,4.03.2,8.25,4.41,9.52-2.19,1.08-4.71.68-6.47-.79-2.19-1.82-2.13-5.14-1.38-7.9.59-2.13,1.58-4,2.8-5.85,2.22-3.37,5.01-6.14,8.04-8.8,18.51-16.27,46.62-15.02,63.63,2.81.44.06,1.02.23,1.19.54.24.43.24,1.05,0,1.59l1.81.72.4,2.51-2.36-.88-.36-1.91c-.59.04-1.04.03-1.45-.25-.27-.18-.44-.74-.42-1.1-16.74-17.69-44.85-18.48-62.56-1.65-3,2.85-5,6.64-4.83,11.17Z"/>
  <path class="cls-1" d="M53.97,137.75c-13.42-6.16-24.24-16.7-30.81-29.88l6.54-.07c3.83-.25,7.57-.77,11.32-1.55,12.34,18.24,35.5,25.73,56.25,18.13,13.15-4.82,23.62-15.31,28.5-28.54.05,7.47,3.48,13.62,11.27,14.39-7.14,12.91-18.27,22.88-31.74,28.46-16.41,6.81-35.11,6.5-51.32-.94Z"/>
  <path class="cls-2" d="M15.72,101.78c-3.49-1.2-6.24-3.85-7.78-7.23,1.74,1.64,3.21,3.44,5.55,4.1-2.4-1.64-4.37-3.67-5.53-6.37,1.65,1.73,3.2,3.44,5.59,4.21-2.19-1.51-4.26-3.43-5.34-6.12,1.77,1.76,3.44,3.39,5.68,4.08-2.51-1.59-4.52-3.63-5.69-6.36,1.69,1.75,3.28,3.35,5.56,4.08-2.29-1.53-4.29-3.46-5.41-6.11,1.69,1.55,3.09,3.18,5.28,3.81-2.25-1.56-4.17-3.49-5.27-6.1,1.63,1.62,3.08,3.22,5.35,3.94-2.12-1.5-4.11-3.35-5.2-5.98,1.7,1.67,3.3,3.22,5.55,3.95-2.38-1.53-4.39-3.53-5.55-6.23,1.65,1.66,3.2,3.22,5.4,3.94-2.21-1.54-4.15-3.39-5.26-5.98,1.6,1.5,3.02,3.03,5.12,3.68-2.18-1.56-4.04-3.4-5.1-5.96,1.62,1.68,3.21,3.14,5.39,3.94-2.19-1.56-4.15-3.38-5.24-5.98,1.65,1.61,3.22,3.07,5.38,3.82-2.3-1.54-4.25-3.44-5.37-6.1,4.28,4.24,9.54,6.35,15.47,6.76,4.11.29,8.08.08,12.18-.54,4.74-.72,9.27-1.71,13.87-3.08l16.97-5.04c7.84-2.33,15.58-4.62,23.53-6.52,10.59-2.53,21.59-4.58,32.45-4.98,6.58-.24,14.2.34,20.27,2.89,2.37.99,5.12,3.5,6.71,5.73-2.12-1.49-4.12-2.97-6.52-3.62,2.62,1.65,4.98,3.35,6.69,5.85l-3.29-2.35-3.3-1.61c-.28.03-.49.04-.14.05,2.57,1.63,4.99,3.35,6.56,5.79-1.99-1.55-3.78-2.79-5.99-3.66l-.3-.05s-.03.04.01.07l.26.15c2.09,1.42,4.26,2.91,5.75,5.21-2-1.31-3.85-2.88-6.26-3.58,2.35,1.58,4.69,3.16,6.28,5.66-2.04-1.44-3.79-2.9-6.21-3.66,2.34,1.57,4.74,3.32,6.27,5.78-2.04-1.56-3.82-3.03-6.17-3.76,2.38,1.62,4.61,3.3,6.21,5.84-1.23-.94-2.39-2.02-3.81-2.76l-2.3-1.2-.15.06,3.49,2.67,2.54,2.84c.1.23.07.34-.13.14-1.79-1.49-3.54-2.84-5.75-3.62,2.18,1.62,4.35,3.15,5.83,5.64-1.87-1.4-3.63-2.94-5.95-3.73,2.18,1.55,4.32,3.14,5.83,5.61-1.82-1.27-3.43-2.82-5.77-3.59,2.12,1.44,4.11,3.14,5.68,5.39.05.19-.04.21-.22.09-1.6-1.38-3.13-2.62-5.28-3.43,1.92,1.42,3.83,2.99,5.28,5.08l.17.28s-.22.08-.26.04l-.17-.17c-3.48-3.3-8.82-5.29-13.58-5.99-7.54-1.11-16.09-.29-23.67.93-13.15,2.12-27.44,6.03-40.21,9.97l-14.19,4.38-14.23,4.04c-5.39,1.53-13.69,3.02-19.19,2.66-2.86-.18-5.6-.79-8.36-1.74Z"/>
  <path class="cls-2" d="M88.3,59.19c6.98-1.73,13.8-3.18,20.84-4.26,8.59-1.31,17.21-1.58,25.8-.54,4.8.58,9.51,1.85,13.22,4.91,1.23,1.24,2.59,2.37,3.01,4.23-1.87-2.13-3.85-3.78-6.38-4.87-5.37-2.3-11.34-2.93-17.18-3.1-6.85-.2-13.56.41-20.34,1.53s-13.22,2.54-19.81,4.21l-21.92,6.12-17.23,5.22c-7.34,2.22-15.49,4.02-23.12,3.49-4.52-.31-9.19-1.54-12.63-4.5-4.05-3.48-5.3-9.02-3.21-13.94,1.86-4.37,5.91-7.33,10.69-7.74,5.73-.5,12,1.77,14.14,7.36.76,1.98.87,4.1.14,6.06s-2.43,3.49-4.68,3.76c1.89-4.07-.27-9.24-4.16-11.34-2.11-1.05-4.44-1.4-6.77-.96-5.73,1.1-7.86,7.97-5.57,12.87.79,1.68,2.21,2.81,3.81,3.68,5.06,2.75,12.15,2.83,18,2.23-.65-1.18-.56-2.5.12-3.47,1.85,2.9,7.69,2.19,10.88,1.23l20.65-6.21,21.7-6Z"/>
  <path class="cls-2" d="M107.42,91.73c-.77-3.27-3.33-3.37-6.37-3.2l-5.25,1-17.87,5-17.32,5.24-13.61,3.81c-4.76,1.33-9.49,2.15-14.42,2.68-6.07.65-13.2.68-18.76-1.77-3.13-1.46-5.87-3.96-6.59-7.55,1.94,3.47,4.63,5.81,8.37,6.92,2.86.84,5.72,1.23,8.73,1.33,3.91.1,7.68-.25,11.56-.93,5.08-.89,9.97-2.01,14.92-3.48l14.96-4.47,19.59-5.86c6.75-2.02,13.47-3.67,20.36-5.09,8.17-1.68,17.31-3.03,25.57-2.45,4.11.29,8.08,1.16,11.8,2.88,1.69.78,3.21,1.67,4.47,3.04,2.67,2.91,3.83,6.88,3.22,10.77-.55,3.48-2.57,6.29-5.73,7.84-2.84,1.4-6.08,1.87-9.22,1.32s-5.94-2.64-7.31-5.65c-1.47-3.22-1.37-6.9.25-10.02.02,1.83.08,3.41.55,5.02,1.19,4.1,4.75,6.57,8.98,6.62,3.12.03,5.89-1.36,7.35-4.21,1.28-2.48,1.5-5.42.57-8.08-.47-1.35-1.32-2.43-2.37-3.38-3.91-3.55-9.79-4.27-15-4.42-3.85-.11-7.57.16-11.42.63l-10.24,1.68c1.65,1.15,1.78,3.38.2,4.79Z"/>
  <g>
    <path class="cls-5" d="M19.98,89.92l-.48-2.95,11.09-1.79.48,2.95-3.76.61,1.61,9.99-3.57.58-1.62-9.99-3.76.61Z"/>
    <path class="cls-5" d="M34.61,97.65l-3.37-12.67,3.49-.93,1.27,4.77,4.37-1.16-1.27-4.77,3.49-.93,3.37,12.67-3.49.93-1.33-5.01-4.37,1.16,1.33,5.01-3.49.93Z"/>
    <path class="cls-5" d="M47.52,94.04l-3.75-12.56,9.43-2.82.86,2.87-5.97,1.78.6,2,5.49-1.64.83,2.78-5.49,1.64.61,2.05,5.95-1.78.86,2.87-9.41,2.81Z"/>
    <path class="cls-5" d="M61.57,89.85l-3.75-12.56,5.3-1.58,2.3,3.59c.2.31.43.7.72,1.18.28.48.57.99.88,1.53s.59,1.06.86,1.56c.27.5.49.92.66,1.27l-.78.23c-.04-.39-.09-.86-.14-1.42-.05-.56-.1-1.15-.14-1.77-.04-.62-.08-1.21-.11-1.76-.03-.55-.05-1.01-.05-1.38l-.06-4.26,5.31-1.59,3.75,12.56-3.44,1.03-1.45-4.85c-.09-.29-.19-.66-.32-1.13-.12-.47-.26-.98-.41-1.54-.15-.56-.3-1.12-.45-1.69-.15-.57-.3-1.09-.45-1.57l.31-.09c.04.54.07,1.11.11,1.71.03.6.06,1.19.09,1.78s.04,1.12.06,1.61c.01.49.02.9.02,1.23v5.29s-2.84.85-2.84.85l-2.93-4.41c-.18-.28-.4-.62-.66-1.04-.26-.42-.55-.88-.85-1.38-.3-.5-.61-1.01-.92-1.53-.31-.52-.59-1.02-.86-1.49l.35-.11c.14.48.31,1,.49,1.56.18.56.36,1.11.55,1.66.18.55.35,1.05.5,1.51.15.46.27.83.36,1.12l1.45,4.85-3.44,1.03Z"/>
    <path class="cls-5" d="M77.19,85.15l.46-13.8,4.69-1.38,7.96,11.32-3.92,1.15-2.87-4.45c-.62-.97-1.23-1.95-1.83-2.95-.6-1-1.19-2.02-1.78-3.06l.87-.26c.07,1.2.13,2.37.18,3.53s.07,2.31.08,3.46v5.3s-3.83,1.13-3.83,1.13ZM79.63,82.02l-.78-2.63,6.92-2.04.78,2.63-6.92,2.04Z"/>
    <path class="cls-5" d="M91.05,81.09l-3.08-12.74,3.68-.89,4.29,4.26c.26.27.55.57.87.92.32.35.64.73.98,1.14s.67.86,1.01,1.33l-.24.64c-.14-.45-.3-.98-.47-1.57-.17-.59-.34-1.17-.5-1.73-.16-.56-.28-1.03-.37-1.39l-1.13-4.67,3.56-.86,3.08,12.74-3.68.89-3.99-3.96c-.33-.34-.68-.7-1.04-1.08-.36-.38-.73-.81-1.11-1.27-.39-.46-.8-.96-1.24-1.5l.52-.25c.19.59.37,1.17.54,1.75.17.58.32,1.1.45,1.58s.23.86.3,1.16l1.13,4.65-3.56.86Z"/>
    <path class="cls-5" d="M109.66,77.08c-1.11.21-2.12.2-3.03-.03-.91-.23-1.66-.66-2.26-1.29-.6-.63-.99-1.43-1.18-2.4l-1.58-8.27,3.49-.67,1.53,7.97c.08.4.23.74.47,1.02.24.27.53.47.87.59.34.12.71.14,1.11.06.4-.08.74-.23,1.02-.47.28-.24.47-.52.59-.87s.14-.71.06-1.12l-1.53-7.97,3.49-.67,1.58,8.27c.19.97.12,1.86-.21,2.67-.32.81-.86,1.48-1.62,2.03-.76.55-1.69.93-2.81,1.15Z"/>
    <path class="cls-5" d="M115.2,75.72l2.96-13.48,4.86-.5,5.76,12.58-4.06.42-2.01-4.9c-.43-1.06-.86-2.14-1.26-3.23-.41-1.09-.81-2.2-1.19-3.33l.9-.09c-.15,1.19-.3,2.36-.47,3.51s-.35,2.29-.56,3.42l-.96,5.21-3.97.41ZM118.17,73.09l-.28-2.73,7.17-.74.28,2.73-7.17.74Z"/>
    <path class="cls-5" d="M129.31,74.37l.5-13.1,3.61.14-.38,10.11,5.48.21-.11,2.99-9.1-.35Z"/>
  </g>
  <path class="cls-2" d="M138.52,100.06l-2.23-.03,1.99-.28c3.72-.53,6.31-3.34,6.62-7.13.34.68.47,1.23.62,1.9-1.02,3.08-3.65,5.26-6.99,5.54Z"/>
  <path class="cls-2" d="M23.39,59.46c-4.97-.1-8.51,2.04-9.27,7.32-.25-.58-.45-1.26-.55-1.93,1.13-3.5,4.38-5.78,8.01-5.52l1.8.13Z"/>
  <path class="cls-2" d="M136.71,97.91l-1.71-.21,2.54-.12c3.55-.39,6.03-3.03,6.38-6.62.33.32.64.79.8,1.2-.88,3.22-3.5,5.41-6.79,5.7l-1.22.04Z"/>
  <path class="cls-2" d="M21.25,61.85c-3.37.41-5.76,3.04-6.09,6.54-.36-.31-.6-.69-.82-1.13,1.3-4.28,4.75-6.15,9.06-5.67l-2.14.26Z"/>
  <path class="cls-2" d="M20.48,57.44c-3.45.34-6.08,2.64-6.97,5.85-.02-.85-.09-1.94.36-2.64,1.61-2.5,4.55-3.67,7.51-3.55l1.87.21-2.77.14Z"/>
  <path class="cls-2" d="M20.68,64.31c-2.45.76-3.98,2.75-4.5,5.17l-.77-.77c1.24-3.58,4.36-5.33,8.13-4.97-.94.18-1.91.28-2.85.57Z"/>
  <path class="cls-2" d="M143.67,90.64c-1.39,4-4.74,5.52-8.82,4.9,4.09.12,7.15-1.57,8.01-5.62l.81.72Z"/>
  <path class="cls-2" d="M138.91,102.25l-2.62-.08c4.47-.09,7.7-1.45,9.3-6,0,.77.01,1.79-.34,2.53-1.36,2.15-3.81,3.42-6.34,3.55Z"/>
  <path class="cls-2" d="M17.41,70.33c-.32-.15-.61-.36-.72-.58,1.07-2.35,3.38-3.73,5.91-3.84.43-.02.75-.03,1.09.19-2.89-.04-5.39,1.55-6.28,4.23Z"/>
  <path class="cls-2" d="M137.08,93.43l-2.28.05-.08-.11,1.66-.1c2.45-.15,4.43-1.77,5.28-4.16.24.1.51.27.75.5-.99,2.11-2.91,3.58-5.33,3.82Z"/>
  <path class="cls-2" d="M18.9,71.02c-.25.03-.62-.18-.69-.4,1.3-1.7,3.47-2.8,5.67-2.47-2.05.29-3.93,1.04-4.99,2.86Z"/>
  <path class="cls-2" d="M140.92,88.68c-1.47,2.09-3.96,2.93-6.36,2.56,2.33-.06,4.48-.9,5.67-2.92l.69.36Z"/>
  <path class="cls-2" d="M138.92,87.84c-1.33,1.06-2.92,1.48-4.5,1.24,1.49-.1,2.78-.54,3.92-1.49l.58.24Z"/>
  <path class="cls-2" d="M20.85,71.7c-.14.11-.59-.03-.65-.18,1.13-.85,2.4-1.37,3.77-1.15-1.13.2-2.15.59-3.12,1.33Z"/>
  <g>
    <path class="cls-4" d="M63.69,21.54c.54-.1.99-.14,1.34-.12.11,0,.18.02.22.06.04.04.09.11.14.23l.98,2.14s0,.06-.06.09c-.05.03-.09.03-.13,0-.6-.77-1.26-1.28-1.97-1.55-.71-.27-1.46-.27-2.23,0-.72.25-1.3.67-1.73,1.26-.43.59-.68,1.3-.75,2.13-.07.83.06,1.73.4,2.7.34.98.81,1.77,1.4,2.39.59.62,1.25,1.03,1.98,1.22.73.19,1.47.15,2.24-.12.73-.26,1.28-.67,1.64-1.24.36-.57.6-1.39.73-2.46,0-.04.03-.06.08-.07.06,0,.09,0,.1.04l.45,2.06c.02.13.03.22.02.27,0,.04-.05.1-.13.18-.85.69-1.78,1.21-2.78,1.56-1.14.4-2.23.54-3.27.42-1.05-.12-1.96-.47-2.74-1.07-.78-.6-1.34-1.39-1.69-2.37-.35-1.01-.41-2-.16-2.97.25-.97.75-1.85,1.51-2.61.76-.77,1.7-1.35,2.83-1.74.5-.17,1.02-.31,1.56-.41Z"/>
    <path class="cls-4" d="M81.25,29.31c0,.07-.02.1-.07.11-.22.02-.57.05-1.04.08-.49.03-.85.06-1.06.08-.28.03-.62.08-1.02.15-.38.06-.68.11-.9.13-.04,0-.07-.03-.08-.09,0-.07.01-.1.06-.11.29-.03.5-.09.62-.16.12-.08.17-.19.16-.35-.02-.19-.17-.5-.44-.92l-1.39-2.14-4.12.46-.49,1.53c-.11.34-.15.65-.12.93.04.4.22.7.53.89.31.19.7.26,1.19.21.06,0,.09.02.09.09,0,.07-.02.1-.07.11-.2.02-.49.04-.88.06-.43.02-.8.05-1.11.09-.3.03-.66.08-1.09.15-.38.06-.68.11-.92.14-.04,0-.07-.03-.08-.09s.01-.1.06-.11c.31-.03.57-.13.77-.28.2-.15.38-.4.56-.76.18-.35.37-.87.59-1.55l2.75-8.4s.07-.06.15-.07c.09,0,.14,0,.16.03l5.1,7.78c.48.75.86,1.26,1.15,1.53.29.27.58.39.85.36.06,0,.09.02.09.09ZM72.12,26.06l3.65-.4-2.35-3.61-1.3,4.01Z"/>
    <path class="cls-4" d="M89.38,22.19s-.03.04-.1.04c-.06,0-.1,0-.11-.04-.12-.67-.38-1.17-.78-1.53-.4-.35-.94-.56-1.64-.62l-.5-.04c-.34-.03-.59.02-.76.15-.17.13-.27.35-.29.65l-.32,3.63,1.21.11c.65.06,1.15-.01,1.52-.21.36-.2.56-.5.6-.9,0-.02.04-.03.1-.02.07,0,.1.02.1.04l-.15,1.53c-.03.36-.05.63-.05.81l-.06.89s-.04.05-.11.04c-.07,0-.1-.03-.1-.06.04-.45-.1-.82-.43-1.11-.33-.29-.82-.47-1.47-.53l-1.19-.11-.32,3.59c-.03.35,0,.61.07.78.07.18.23.31.47.4.24.09.62.16,1.15.2.02,0,.03.04.02.1,0,.07-.02.1-.04.1-.46-.04-.82-.08-1.07-.11l-1.71-.17-1.26-.1c-.23,0-.53-.03-.93-.07-.03,0-.05-.04-.04-.11,0-.07.03-.1.06-.1.39.03.68.03.86,0,.18-.04.31-.14.39-.3.08-.16.13-.4.16-.74l.69-7.78c.03-.34.02-.58-.02-.75-.04-.16-.14-.28-.31-.36-.16-.08-.42-.13-.76-.16-.03,0-.05-.04-.04-.11,0-.07.03-.1.06-.1l7.12.63c.11,0,.16.07.15.17l-.17,2.24Z"/>
    <path class="cls-4" d="M97.82,29.83s.06.02.08.05c.02.02.03.04.03.05-.34.82-.6,1.57-.78,2.27-.02.09-.06.14-.1.17-.04.03-.11.03-.21,0l-7.2-1.93s-.04-.05-.02-.11c.02-.07.04-.09.07-.08.35.09.61.13.78.12.17-.01.31-.09.4-.23.1-.14.19-.38.28-.7l2.02-7.54c.09-.33.12-.57.11-.74-.01-.17-.09-.3-.24-.4-.15-.1-.39-.2-.73-.29-.03,0-.04-.05-.02-.11s.04-.09.07-.08l6.9,1.85c.11.03.15.09.12.19l-.55,2.17s-.04.03-.1.02c-.06,0-.1-.03-.1-.06,0-.68-.17-1.22-.5-1.64-.33-.41-.83-.71-1.51-.89l-.49-.13c-.33-.09-.58-.08-.77.02-.19.1-.32.3-.4.59l-.89,3.32,1.35.36c.63.17,1.14.19,1.54.06.39-.13.64-.39.75-.78,0-.03.04-.04.1-.02.06.02.09.04.08.07l-.41,1.46-.19.79c-.08.38-.15.67-.2.89,0,.02-.04.02-.11,0-.07-.02-.09-.04-.09-.06.12-.45.04-.84-.23-1.19-.27-.35-.73-.61-1.37-.78l-1.34-.36-.99,3.68c-.08.32-.09.56,0,.75.08.18.25.31.51.38l.54.14c.85.23,1.57.24,2.18.03.6-.21,1.12-.65,1.56-1.31,0-.02.03-.03.07-.02ZM95.18,20.1s-.06-.04-.06-.1c0-.05.02-.08.06-.1.38-.14.91-.38,1.61-.72.4-.19.7-.34.9-.42.07-.04.26.03.56.21.31.18.57.37.79.56.22.19.26.28.13.27-.72-.02-1.38,0-1.99.05-.61.05-1.27.13-1.96.23h-.04Z"/>
  </g>
  <g>
    <path class="cls-4" d="M57.96,135.87c-.03.06-.07.08-.12.05-.2-.1-.49-.27-.89-.51-.42-.24-.72-.42-.91-.51-.24-.13-.55-.27-.91-.44-.34-.15-.61-.28-.81-.39-.04-.02-.04-.06-.01-.12.03-.06.07-.08.1-.06.25.13.45.2.59.21.14,0,.25-.06.32-.2.09-.17.13-.5.14-.99l.04-2.5-3.61-1.89-1.24.98c-.28.22-.48.45-.61.69-.18.35-.2.69-.06,1.02.15.33.43.6.85.82.05.03.06.07.03.13-.03.06-.07.08-.12.05-.18-.09-.43-.23-.75-.43-.36-.21-.68-.39-.95-.54-.26-.14-.59-.29-.97-.47-.34-.15-.62-.29-.82-.39-.04-.02-.04-.06-.01-.12.03-.06.07-.08.1-.06.27.14.53.21.78.19.24-.02.54-.12.87-.31.34-.19.78-.5,1.33-.94l6.85-5.33s.09-.01.16.02c.08.04.11.08.11.11l-.11,9.14c-.02.87.01,1.5.1,1.88.09.38.25.64.5.76.05.03.06.07.03.13ZM52.3,128.22l3.2,1.67.06-4.23-3.26,2.55Z"/>
    <path class="cls-4" d="M60.95,129.08s-.06.03-.11.01c-.05-.02-.07-.05-.06-.08.17-.41.38-.94.64-1.6.26-.66.43-1.15.54-1.49.02-.05.05-.07.11-.05.06.02.08.05.06.11-.07.23.2.44.8.62.9.31,1.96.64,3.17,1.01.62.19,1.29.38,1.99.57l1.08.31c.4.12.7.18.9.19.2,0,.35-.07.45-.21.02-.04.06-.05.12-.03.06.02.08.05.07.09-.13.31-.32.8-.56,1.49-.25.69-.44,1.24-.56,1.66,0,.03-.04.04-.09.02-.05-.02-.08-.04-.08-.08.09-.86-.02-1.56-.33-2.1-.31-.54-.78-.9-1.42-1.09-.31-.09-.53-.09-.67.01-.14.1-.27.34-.38.71l-2.21,7.31c-.1.33-.14.57-.12.74.02.17.11.3.27.41.16.11.44.22.83.34.03,0,.04.05.02.11-.02.06-.04.09-.08.08-.38-.11-.68-.21-.9-.29l-1.31-.41-1.29-.37c-.23-.06-.53-.14-.92-.26-.03,0-.04-.05-.02-.11.02-.06.04-.09.08-.08.38.11.67.17.87.18.2,0,.36-.06.47-.19.11-.13.22-.36.32-.67l2.22-7.34c.11-.36.13-.62.08-.77-.06-.16-.23-.28-.53-.37-1.26-.38-2.41.17-3.45,1.64Z"/>
    <path class="cls-4" d="M81.79,140.24c0,.07-.02.1-.06.1-.39-.03-.69-.06-.92-.09l-1.27-.12-1.49-.1c-.2,0-.47-.02-.81-.05-.03,0-.05-.04-.04-.1s.02-.1.06-.1c.41.03.71.03.9-.01.19-.04.33-.13.4-.28.08-.15.13-.39.16-.73l.3-3.8-5.33-.42-.3,3.8c-.03.33-.01.58.04.74.05.16.17.28.35.35.18.07.48.12.88.15.02,0,.03.04.03.1,0,.07-.02.1-.04.1-.39-.03-.69-.06-.92-.09l-1.43-.13-1.24-.08c-.22,0-.52-.03-.91-.06-.02,0-.03-.04-.03-.1s.02-.1.04-.1c.39.03.67.03.85-.02.18-.04.31-.14.39-.29.08-.15.13-.4.16-.73l.61-7.64c.03-.33.01-.57-.04-.73-.05-.16-.16-.28-.33-.35-.17-.07-.44-.13-.81-.16-.03,0-.05-.04-.04-.1s.02-.1.06-.1l.89.09c.5.06.91.11,1.22.13.42.03.9.06,1.46.08l.91.06s.03.04.03.1c0,.07-.02.1-.04.1-.4-.03-.69-.02-.88.03-.19.05-.33.15-.41.31-.08.15-.14.4-.17.73l-.27,3.35,5.33.42.27-3.35c.03-.33.01-.58-.04-.74-.05-.16-.17-.29-.35-.37-.18-.08-.48-.14-.88-.17-.03,0-.05-.04-.04-.1,0-.07.02-.1.06-.1l.81.08c.55.07,1.04.12,1.48.15.3.02.72.05,1.27.07l.93.06s.05.04.04.1c0,.07-.02.1-.06.1-.37-.03-.65-.02-.84.02-.19.05-.32.14-.39.29-.07.15-.12.39-.15.72l-.61,7.64c-.03.33-.02.58.03.74.05.16.16.28.33.35.17.07.45.12.84.15.03,0,.05.04.04.1Z"/>
    <path class="cls-4" d="M91.55,136.55s.06,0,.09.01c.03.01.04.03.05.04,0,.87.03,1.65.11,2.35.01.09,0,.15-.03.19-.03.04-.09.07-.19.08l-7.27.87s-.05-.03-.06-.09c0-.07,0-.1.04-.1.35-.04.6-.1.75-.17.15-.07.25-.19.28-.36.04-.17.03-.41,0-.74l-.91-7.61c-.04-.33-.1-.57-.17-.71-.07-.15-.2-.24-.37-.28-.17-.04-.43-.04-.77,0-.03,0-.05-.03-.06-.09,0-.07,0-.1.04-.1l6.97-.83c.11-.01.17.03.18.13l.29,2.18s-.03.04-.08.06c-.06.02-.1.01-.11-.02-.25-.61-.6-1.05-1.06-1.31-.45-.26-1.02-.35-1.7-.26l-.49.06c-.33.04-.56.14-.7.3-.14.16-.19.39-.15.69l.4,3.35,1.36-.16c.64-.08,1.11-.24,1.42-.5.31-.26.45-.59.4-.98,0-.03.02-.05.08-.06.06,0,.09,0,.1.04l.16,1.48.11.79c.07.37.11.66.14.88,0,.02-.03.04-.09.04-.07,0-.1,0-.1-.02-.05-.45-.27-.78-.64-1-.38-.22-.89-.29-1.53-.21l-1.35.16.44,3.72c.04.32.13.55.27.69.14.14.34.19.6.16l.54-.06c.86-.1,1.52-.36,1.99-.77.47-.41.79-1,.94-1.76,0-.02.02-.04.06-.04Z"/>
    <path class="cls-4" d="M102.32,125.46c.02.06.02.1,0,.1-.42.14-.7.41-.83.82-.13.41-.11.89.07,1.45l2.64,8.06s0,.06-.05.09c-.04.03-.08.03-.11.02l-10.13-5.99,2.01,6.12c.18.56.44.96.78,1.21.34.25.71.31,1.12.17.02,0,.04.02.06.08.02.06.02.1,0,.1-.29.1-.52.16-.68.21l-.86.26-.97.34c-.17.07-.43.16-.77.27-.03.01-.06-.02-.08-.08s-.02-.1.02-.11c.46-.15.77-.43.93-.85.16-.41.15-.9-.03-1.45l-2.18-6.66c-.47-.26-.85-.43-1.14-.49-.29-.06-.57-.05-.83.04-.02,0-.04-.02-.06-.08-.02-.06-.02-.1,0-.1l.67-.2c.14-.03.34-.09.6-.18l1.19-.41c.14-.06.32-.12.53-.19.08-.03.15-.03.21,0,.06.03.16.09.31.2.26.18.44.3.54.36l7.5,4.5-1.66-5.08c-.19-.57-.45-.97-.78-1.22-.34-.25-.71-.31-1.12-.17-.02,0-.04-.02-.06-.08-.02-.06-.02-.1,0-.1l.68-.21c.34-.09.63-.17.86-.25.21-.07.5-.18.87-.32l.7-.25s.04.02.06.08Z"/>
    <path class="cls-4" d="M117.3,128.3c.03.06.03.1-.02.13-.19.11-.49.28-.9.5-.43.23-.73.4-.91.5-.24.14-.52.32-.85.54-.31.21-.56.37-.75.49-.04.02-.07,0-.11-.05-.03-.06-.03-.1,0-.12.25-.15.41-.28.49-.4.08-.12.08-.24,0-.37-.1-.16-.35-.38-.77-.64l-2.11-1.35-3.5,2.08.18,1.57c.04.35.13.64.27.88.2.34.48.54.84.58.35.05.74-.05,1.14-.29.05-.03.09-.01.12.04.03.06.03.1-.02.13-.17.1-.42.24-.76.41-.37.2-.69.37-.96.53-.26.15-.56.35-.91.58-.31.21-.57.38-.77.49-.04.02-.07,0-.11-.05-.03-.06-.03-.1,0-.12.27-.16.46-.34.57-.56.12-.22.18-.52.19-.91.01-.39-.02-.93-.1-1.63l-.95-8.63s.04-.08.1-.12c.08-.05.13-.06.15-.03l7.72,4.89c.73.48,1.28.78,1.65.9.37.13.67.12.91-.02.05-.03.09-.01.12.04ZM107.81,129.1l3.1-1.84-3.57-2.27.46,4.12Z"/>
  </g>
</svg>