<?xml version="1.0" encoding="UTF-8"?>
<svg id="Layer_1" data-name="Layer 1" xmlns="http://www.w3.org/2000/svg" viewBox="0 0 160 160">
  <defs>
    <style>
      .cls-1 {
        fill: #a8873f;
      }

      .cls-2 {
        fill: #2d2d44;
      }
    </style>
  </defs>
  <g>
    <g>
      <path class="cls-1" d="M90.49,93l-2.17.67c5.68,2.76,15.86-2.28,14.2-7.53l-1.39,2.94-.47-1.79-.62,2.08-3.46-3.54c10.43-3.8,21.13-.72,29.51,5.91,10.28,8.14,16.78,19.86,17.74,32.51.61,7.99-1.12,16.06-5.93,22.44-5.23,6.93-13.72,9.87-22.44,7.97-7.13-1.55-13.33-4.84-18.68-9.58-10.79-9.55-16.63-22.94-16.45-36.86.1-7.68,3.57-15.98,10.8-19.89l.08,2.35c.49.23-.13,2.12-.72,2.3ZM137.54,108.62c-3.57-8.74-13.73-19.42-23.57-21.72,3.52,1.73,6.96,3.24,10.13,5.91,5.89,4.44,9.51,10,13.44,15.81ZM83.76,100.77l.87-3.63c-1.48,2.62-2.46,5.13-2.56,7.91-.2,5.62-.13,11.25,2.31,16.42-1.32-8.01-2.6-12.43-.62-20.7ZM84.91,114.12c-.44-5.93-.17-10.91,1.87-16.27-3.39,4.38-3.27,11.49-1.87,16.27ZM90.36,114.79c-.42-4.59-.18-8.43.63-12.97l-1.55,6.12c.13,2.53.18,4.74.92,6.85ZM136.15,110.75c1.55,4.97,3.01,9.51,3.64,14.45.26-5.02-1.1-10.04-3.64-14.45ZM91.73,125.93l-4.24-11.76c-.16,3.36,2.18,8.8,4.24,11.76ZM136.65,134.32l.47-4.68-.41-6.62-.4.18.33,7.13-1.69,9.32,1.7-5.33ZM141.97,128.07c-.54,7.01-2.23,12.83-5.81,18.31,4.65-5.16,5.98-12.1,5.81-18.31ZM139.33,133.18c-.95,4.99-3.14,9.36-6.23,13.54,4.01-3.58,5.96-8.54,6.23-13.54ZM93.33,133.72l-4.75-7.66c1.05,3.68,3.17,6.56,5.4,9.63,4.47,6.16,10.26,11.9,18.69,14.29-7.7-3.51-14.74-8.84-19.34-16.26ZM120.33,147.99c-5.9-2.32-11.05-4.53-15.46-8.93-.12-.1-.43.26-.45.55,4.82,4.13,9.92,7.26,15.91,8.38ZM128.62,151.9c-6.35,1.86-12.41,1.81-18.15-1.28-7.45-2.78-12.72-8-18.23-13.78,3.34,5.41,8.61,9.86,14.58,13.06,6.36,3.42,15.62,5.57,21.8,2ZM123.68,150.72c-6.69-.41-11.54-3.12-17.34-6.62,3.64,3.55,12,7.68,17.34,6.62Z"/>
      <path class="cls-1" d="M55.79,97.3l-1.97,4.91-.09-1.88-5.82,8.83-5.61,7.47-.35-.37,4.17-6.34,1.2-2c1.96-3.26,4.33-6.28,5.92-9.71l.86-1.85,4.07-7.79.87-1.98,2.96-7.85.64-2.05.84-2.69-.11-.99c-.04-.33,1.45-1.72.82-1.84l-.72-.14c1.12-1.27,1.63-2.85,1.13-4.01l-1.83,2.84-12.43,13.39c-6.8,7.32-12.02,15.55-14.75,24.91-1.87,6.41-2.9,12.57-2.19,19.35,10.3-.86,21.58-10.93,27.41-18.66,6.15-8.16,8.53-17.78,8.58-27.69.02-4.63-.2-8.95-1.59-13.26-.69,1.96-.68,3.65-.46,5.37-.39-.05-.92-.16-.92.05v1.65c-.61.79-1.13,2.08-.97,3.29l-1,.86c-.21.43-.21.89-.01,1.3v1.2c-.02.17-.55.04-.8.01l-4.51,9.55-3.35,6.12Z"/>
      <path class="cls-1" d="M127.78,27.31l-5.7,2.65c-.63.29-1.2.92-1.47,1.57-1.29.76-4.06.91-4.49,2.75-1.4.56-3.03,1.25-4.55,2.09l-2.14,1.17-2.4,1.28-4.75,2.47c-.42.75-1.33,2.05-2.09,2.29l-.95.3c-.18.06.45.46.69.59l-4.27,1.04.82,1.05c-1.4-.29-2.7-.18-3.11.85l-2.8.71,1.02.63-4.6.76.96.71c-2.11.18-3.86.43-5.95,1.22,16.26,1.19,31.04-4.51,44.77-13.21,8.4-5.32,18.51-12.93,22.5-22.01-12.84-2.33-26.91,2.82-37.32,9.38-4.76,3-9.15,5.99-13.41,9.58l-16.03,13.48,4.05-1.39,2.89-.93,3.06-1.44,2.8-1.25,3.99-2.11,2.32-1.18c2.27-1.16,4.59-2.08,6.08-3.85.11.17.35.58.36.57l.71-.4,3.39-1.89,4.15-2.31c1.79-1,3.37-2,4.9-3.26,3.62-.82,7.73-3.64,10.29-5.53.25.43.32.58.43.53l1.29-.6-1.03,1.66c-1.67.22-3.76.98-4.39,2.04Z"/>
      <path class="cls-1" d="M11.81,9.91c-3.42,7.67,2.44,13.44,2.92,9.67l.95-7.41c.27-2.08-.62-4.25-1.6-6.12-1.48,1.11-1.64,2.43-2.28,3.86Z"/>
      <path class="cls-1" d="M34.19,42.58c1.18,1.16,3.13,1.94,5.07,2.29-.25-2.06-2.58-3.09-5.07-2.29Z"/>
    </g>
    <path class="cls-1" d="M66.65,68.92c-1.81,9-5.34,17.64-10.23,25.53,4.39-10.36,9.99-21.39,9.34-32.49-.12-2.06-.81-4.06-1.39-5.87-.7-2.16-1.9-2.84-3.86-3.85l-4.64-2.36-10.1-5.81-5.49-2.92-1.8-3.34c.43,1.94.81,3.57.67,5.03-2.22-1.03-3.55-1.28-5.57-1.46-.85-3.14-2.4-5.86-4.46-8.45-.77-.97-1.65-1.3-2.66-2.07l-5.77-4.39-6.63-4.73c.48-.32,1.03-.58,1.25-.42l.92.61c.48-.17-.36-.43-.36-1.04v-2.29s3.26,3,3.26,3l6.1,4.4c-1.21-2.17-3.58-2.92-5.38-4.57l-3.5-3.2c-.63-.57-.45-2.4.1-2.51l1.91.94c-.79-.87-1.51-1.53-1.8-2.05-.27-.48.19-1.55.43-2.06-.03-.21-.17-.63-.04-.74l.56-.44c-1.01-.93-1.77-2.46-1.5-3.76,4.61,5.19,8.41,10.24,13.69,14.33l4.79,3.71,3.74.99c2.21.59,4.11,1.6,4.52,4.2-2.78-.31-4.88-1.33-7.32-2.28,1.92,1.77,4.79,2.18,7.12,3.57,5.23,5.31,11.73,9.29,19.26,10.68.1,3.03,4.21,2.67,3.74,4.07l-.48,1.44,3.32,1.62c7.72,3.77,21.25-3.03,29.53-6.34-7.09,4.43-14.94,7.12-23.26,8.76-1.61.32-3.27-.7-4.93-1.17,3.17,3.26,6.92,5.54,9.11,9.13l5.25,8.58c1.95,2.94,3.92,5.65,6.47,8.17,1.56,5.08,4.36,9.64,8.71,13.21-.18.39-1.33,1.18-1.65.94l-1.06-.79.33,1.32c.06.22-.9.36-1.05.36l-.83-2.44-.17.56.41,2.29-.62.17-.79-3.37-.23,3.84c-.97-4.01-1.74-7.57-3.99-11.05l-6.54-10.11c-1.19-1.85-3.5-2.82-5.35-4.12l-1.77-1.25c-.78-5.84-6.04-7.09-9.08-10.83.46,4.7.69,8.79-.19,13.14ZM24.11,26.23c-1.08-.84-2.01-1.75-3.48-2.17l9.35,7.36c.28.22.62.35,1.43.53l-7.3-5.72Z"/>
  </g>
  <g>
    <path class="cls-2" d="M31.97,121.67c.92-15.52,6.89-28.06,17.64-39.76l12.57-13.67c4.41-4.8,2.89-12.18-3.01-15.41l-10.26-5.62-8.25-5.01c-.02,1.43,0,2.43-.31,3.11-.44.94-6.95.21-8.42-4.97-.71-2.49-2.32-4.9-4.32-6.73-3.95-3.62-8.08-6.68-12.63-9.64-3.82-2.48-6.05-6.3-5.38-10.88.35-2.37,1.49-4.87,2.49-7.18.55-1.27,2.73-1.54,3.68-.57l3.08,3.17c4.28,5.27,8.81,10.12,14.41,14.25,3.64,2.69,9.48,2.6,10.79,6.68.45,1.41.9,2.87,2.06,3.87,4.09,3.52,8.98,6.58,14.57,7.45,2.76.43,5.58,1.3,5.83,4.36.12,1.51.81,3.1,2.72,3.7,8.78,2.74,13.04-1.59,18.96-6.78,7.07-6.2,14.17-11.84,22.13-17.07,9.67-6.35,20.73-10.41,32.58-10.81,2.7-.09,5.15.3,7.64,1.26-2.92,8.85-12.92,16.58-20.85,21.92-15.51,10.43-31.04,16.14-50.43,15-1.67-.1-3.81.59-5.42.78,7.41,5.48,10.12,14.43,15.28,20.09l2.73,2.99c.88,2.86,2.1,5.35,3.83,7.9,9.36-3.9,20.01-1.81,28.46,3.76s14.25,13.03,18.06,21.83c3.77,8.71,4.69,18.02,2.14,27.15-1.28,4.58-3.32,8.83-6.54,12.37-11.21,12.3-29.77,7.49-41.84-2.87-9.06-7.76-14.68-18.19-16.72-29.53-2.15-11.94.13-23.75,11.23-30.63-3.01-6.25-6.65-11.83-11.66-16.59-2.54-.89-4.39-2.47-4.96-5.01-1.4-2.14-3.34-3.91-5.45-5.23v4.99c1.99,6.09,2.48,11.81,2.27,18.13-.36,11.08-3.81,21.62-11.52,30.13-6.47,7.14-16.49,15.54-26.63,15.7-.41-2.6-.66-4.46-.53-6.65ZM122.1,29.63c-.63.29-1.2.92-1.47,1.57-1.29.76-4.06.91-4.49,2.75-1.4.56-3.03,1.25-4.55,2.09l-2.14,1.17-2.4,1.28-4.75,2.47c-.42.75-1.33,2.05-2.09,2.29l-.95.3c-.18.06.45.46.69.59l-4.27,1.04.82,1.05c-1.4-.29-2.7-.18-3.11.85l-2.8.71,1.02.63-4.6.76.96.71c-2.11.18-3.86.43-5.95,1.22,16.26,1.19,31.04-4.51,44.77-13.21,8.4-5.32,18.51-12.93,22.5-22.01-12.84-2.33-26.91,2.82-37.32,9.38-4.76,3-9.15,5.99-13.41,9.58l-16.03,13.48,4.05-1.39,2.89-.93,3.06-1.44,2.8-1.25,3.99-2.11,2.32-1.18c2.27-1.16,4.59-2.08,6.08-3.85.11.17.35.58.36.57l.71-.4,3.39-1.89,4.15-2.31c1.79-1,3.37-2,4.9-3.26,3.62-.82,7.73-3.64,10.29-5.53.25.43.32.58.43.53l1.29-.6-1.03,1.66c-1.67.22-3.76.98-4.39,2.04l-5.7,2.65ZM14.75,19.26l.95-7.41c.27-2.08-.62-4.25-1.6-6.12-1.48,1.11-1.64,2.43-2.28,3.86-3.42,7.67,2.44,13.44,2.92,9.67ZM75.94,66.29l1.77,1.25c1.85,1.31,4.16,2.28,5.35,4.12l6.54,10.11c2.25,3.48,3.02,7.04,3.99,11.05l.23-3.84.79,3.37.62-.17-.41-2.29.17-.56.83,2.44c.15,0,1.11-.14,1.05-.36l-.33-1.32,1.06.79c.32.24,1.47-.55,1.65-.94-4.35-3.57-7.15-8.13-8.71-13.21-2.55-2.53-4.52-5.24-6.47-8.17l-5.25-8.58c-2.2-3.59-5.95-5.88-9.11-9.13,1.66.47,3.31,1.49,4.93,1.17,8.32-1.65,16.17-4.33,23.26-8.76-8.28,3.31-21.81,10.11-29.53,6.34l-3.32-1.62.48-1.44c.47-1.41-3.64-1.04-3.74-4.07-7.53-1.39-14.03-5.36-19.26-10.68-2.33-1.39-5.19-1.79-7.12-3.57,2.44.96,4.55,1.97,7.32,2.28-.41-2.61-2.31-3.62-4.52-4.2l-3.74-.99-4.79-3.71c-5.28-4.09-9.08-9.15-13.69-14.33-.27,1.3.48,2.83,1.5,3.76l-.56.44c-.13.1,0,.53.04.74-.24.51-.7,1.57-.43,2.06.28.52,1.01,1.17,1.8,2.05l-1.91-.94c-.55.1-.73,1.93-.1,2.51l3.5,3.2c1.8,1.65,4.18,2.4,5.38,4.57l-6.1-4.4-3.27-3v2.29c.01.61.85.87.37,1.04l-.92-.61c-.23-.15-.77.1-1.25.42l6.63,4.73,5.77,4.39c1.01.77,1.89,1.1,2.66,2.07,2.06,2.59,3.61,5.32,4.46,8.45,2.02.17,3.35.42,5.57,1.46.15-1.46-.24-3.1-.67-5.03l1.8,3.34,5.49,2.92,10.1,5.81,4.64,2.36c1.97,1,3.16,1.68,3.86,3.85.58,1.81,1.27,3.81,1.39,5.87.65,11.1-4.94,22.13-9.34,32.49,4.89-7.89,8.42-16.54,10.23-25.53.87-4.35.64-8.44.19-13.14,3.04,3.75,8.3,5,9.08,10.83ZM39.28,44.54c-.25-2.06-2.58-3.09-5.07-2.29,1.18,1.16,3.13,1.94,5.07,2.29ZM53.83,101.88l-.09-1.88-5.82,8.83-5.61,7.47-.35-.37,4.17-6.34,1.2-2c1.96-3.26,4.33-6.28,5.92-9.71l.86-1.85,4.07-7.79.87-1.98,2.96-7.85.64-2.05.84-2.69-.11-.99c-.04-.33,1.45-1.72.82-1.84l-.72-.14c1.12-1.27,1.63-2.85,1.13-4.01l-1.83,2.84-12.43,13.39c-6.8,7.32-12.02,15.55-14.75,24.91-1.87,6.41-2.9,12.57-2.19,19.35,10.3-.86,21.58-10.93,27.41-18.66,6.15-8.16,8.53-17.78,8.58-27.69.02-4.63-.2-8.95-1.59-13.26-.69,1.96-.68,3.65-.46,5.37-.39-.05-.92-.16-.92.05v1.65c-.61.79-1.13,2.08-.97,3.29l-1,.86c-.21.43-.21.89-.01,1.3v1.2c-.02.17-.55.04-.8.01l-4.51,9.55-3.35,6.12-1.97,4.91ZM91.14,88.02c-7.23,3.91-10.7,12.21-10.8,19.89-.18,13.92,5.66,27.31,16.45,36.86,5.35,4.74,11.56,8.03,18.68,9.58,8.72,1.89,17.21-1.04,22.44-7.97,4.81-6.38,6.54-14.45,5.93-22.44-.96-12.64-7.46-24.37-17.74-32.51-8.38-6.64-19.08-9.71-29.51-5.91l3.46,3.54.62-2.08.47,1.79,1.39-2.94c1.66,5.25-8.52,10.29-14.2,7.53l2.17-.67c.59-.18,1.21-2.07.72-2.3l-.08-2.35Z"/>
    <path class="cls-2" d="M106.84,149.57c6.36,3.42,15.62,5.57,21.8,2-6.35,1.86-12.41,1.81-18.15-1.28-7.45-2.78-12.72-8-18.23-13.78,3.34,5.41,8.61,9.86,14.58,13.06Z"/>
    <path class="cls-2" d="M112.68,149.65c-7.7-3.51-14.74-8.84-19.34-16.26l-4.75-7.66c1.05,3.68,3.17,6.56,5.4,9.63,4.47,6.16,10.26,11.9,18.69,14.29Z"/>
    <path class="cls-2" d="M124.12,92.49c5.89,4.44,9.51,10,13.44,15.81-3.57-8.74-13.73-19.42-23.57-21.72,3.52,1.73,6.96,3.24,10.13,5.91Z"/>
    <path class="cls-2" d="M84.4,121.14c-1.32-8.01-2.6-12.43-.62-20.7l.87-3.63c-1.48,2.62-2.46,5.13-2.56,7.91-.2,5.62-.13,11.25,2.31,16.42Z"/>
    <path class="cls-2" d="M86.79,97.53c-3.39,4.38-3.27,11.49-1.87,16.27-.44-5.93-.17-10.91,1.87-16.27Z"/>
    <path class="cls-2" d="M106.36,143.77c3.64,3.55,12,7.68,17.34,6.62-6.69-.41-11.54-3.12-17.34-6.62Z"/>
    <path class="cls-2" d="M104.43,139.29c4.82,4.13,9.92,7.26,15.91,8.38-5.9-2.32-11.05-4.53-15.46-8.93-.12-.1-.43.26-.45.55Z"/>
    <polygon class="cls-2" points="134.97 139.32 136.67 133.99 137.14 129.31 136.73 122.68 136.33 122.87 136.66 130 134.97 139.32"/>
    <path class="cls-2" d="M136.17,146.05c4.65-5.16,5.98-12.1,5.81-18.31-.54,7.01-2.23,12.83-5.81,18.31Z"/>
    <path class="cls-2" d="M139.81,124.87c.26-5.02-1.1-10.04-3.64-14.45,1.55,4.97,3.01,9.51,3.64,14.45Z"/>
    <path class="cls-2" d="M87.51,113.84c-.16,3.36,2.18,8.8,4.24,11.76l-4.24-11.76Z"/>
    <path class="cls-2" d="M133.11,146.39c4.01-3.58,5.96-8.54,6.23-13.54-.95,4.99-3.14,9.36-6.23,13.54Z"/>
    <path class="cls-2" d="M89.46,107.61c.13,2.53.18,4.74.92,6.85-.42-4.59-.18-8.43.63-12.97l-1.55,6.12Z"/>
    <path class="cls-2" d="M31.43,31.63l-7.3-5.72c-1.08-.84-2.01-1.75-3.48-2.17l9.35,7.36c.28.22.62.35,1.43.53Z"/>
  </g>
</svg>