<?xml version="1.0" encoding="UTF-8"?>
<svg id="Layer_1" data-name="Layer 1" xmlns="http://www.w3.org/2000/svg" viewBox="0 0 336 280">
  <defs>
    <style>
      .cls-1 {
        fill: #1a1a2e;
      }
    </style>
  </defs>
  <g>
    <path class="cls-1" d="M59.43,104.81c1.81.28,3.26.64,4.34,1.09.34.11.55.25.64.42.09.17.16.46.2.87l.73,7.78c0,.11-.09.19-.28.22-.19.04-.32-.02-.39-.17-1.05-3.06-2.54-5.4-4.48-7.03-1.94-1.62-4.27-2.44-7-2.44-2.54,0-4.81.68-6.8,2.04-2,1.36-3.56,3.31-4.7,5.85-1.14,2.54-1.71,5.51-1.71,8.9s.59,6.45,1.76,9.04,2.8,4.59,4.87,5.99,4.45,2.1,7.14,2.1,4.74-.7,6.49-2.1c1.75-1.4,3.42-3.7,4.98-6.91.04-.11.15-.15.34-.11.19.04.28.11.28.22l-.84,6.94c-.08.45-.15.74-.22.87-.08.13-.28.27-.62.42-3.43,1.23-6.91,1.85-10.41,1.85-3.99,0-7.57-.76-10.72-2.27-3.15-1.51-5.63-3.63-7.42-6.35-1.79-2.72-2.69-5.82-2.69-9.29s.92-6.71,2.77-9.49c1.85-2.78,4.39-4.96,7.61-6.52,3.23-1.57,6.82-2.35,10.78-2.35,1.75,0,3.54.14,5.35.42Z"/>
    <path class="cls-1" d="M91.76,136.98c.15,0,.25.08.31.25s0,.29-.14.36l-5.77,2.74c-.15.07-.34.11-.56.11-.6,0-1.17-.32-1.71-.95-.54-.63-.92-1.49-1.15-2.58l-2.41,1.68c-.86.63-1.66,1.09-2.41,1.37-.75.28-1.59.42-2.52.42-1.6,0-2.82-.35-3.64-1.06-.82-.71-1.23-1.7-1.23-2.97,0-1.01.24-1.82.73-2.44.48-.62,1.09-1.1,1.82-1.46.73-.35,1.74-.76,3.05-1.2l1.4-.5,5.04-1.85v-3.19c0-2.39-.2-4.12-.59-5.21-.39-1.08-1.05-1.62-1.99-1.62-1.98,0-3.1,1.53-3.36,4.59-.11,1.12-.44,1.92-.98,2.41-.54.49-1.3.73-2.27.73s-1.61-.2-2.04-.59c-.43-.39-.64-.91-.64-1.54,0-1.12.65-2.19,1.96-3.22,1.31-1.03,2.88-1.86,4.73-2.49,1.85-.63,3.48-.95,4.9-.95,1.64,0,2.98.51,4,1.54,1.03,1.03,1.54,2.58,1.54,4.67v9.91c0,1.08.2,1.92.59,2.52.39.6.94.9,1.65.9.52,0,1.06-.13,1.62-.39h.06ZM82.64,135.97c-.04-.15-.06-.39-.06-.73v-5.38l-2.41,1.12c-.11.04-.49.18-1.12.42-.64.24-1.19.64-1.65,1.2-.47.56-.7,1.21-.7,1.96,0,.9.29,1.6.87,2.1.58.5,1.24.76,1.99.76.6,0,1.21-.21,1.85-.62l1.23-.84Z"/>
    <path class="cls-1" d="M114.61,100.22c1.16.58,1.74,1.39,1.74,2.43,0,.86-.29,1.53-.87,2.02-.58.49-1.24.73-1.99.73-.9,0-1.55-.21-1.96-.62-.41-.41-.78-1.01-1.12-1.79-.34-.78-.69-1.37-1.06-1.76-.37-.39-.97-.59-1.79-.59-1.72,0-3.07,1.2-4.06,3.58-.99,2.39-1.48,6.12-1.48,11.2v3.42c1.16-.04,3.21-.2,6.16-.5.11,0,.21.14.28.42.07.28.11.59.11.92,0,.37-.07.74-.2,1.09-.13.36-.25.51-.36.48-1.79-.45-3.79-.73-5.99-.84v15.06c0,1.16.11,2,.34,2.52.22.52.68.88,1.37,1.06.69.19,1.78.28,3.27.28.15,0,.22.11.22.34s-.08.34-.22.34l-3.86-.06c-.86-.04-2.13-.06-3.81-.06l-3.42.06c-.6.04-1.44.06-2.52.06-.15,0-.22-.11-.22-.34s.07-.34.22-.34c.97,0,1.69-.09,2.16-.28.47-.19.78-.55.95-1.09.17-.54.25-1.37.25-2.49v-12.6c0-1.16-.24-1.91-.73-2.27-.49-.35-1.44-.53-2.86-.53-.11,0-.17-.17-.17-.5s.06-.5.17-.5c1.31,0,2.2-.18,2.69-.53.48-.35.75-1,.78-1.93.19-6.08,1.34-10.48,3.47-13.19,2.13-2.71,5.34-4.06,9.63-4.06,2.09,0,3.71.29,4.87.87Z"/>
    <path class="cls-1" d="M130.68,136.3c.07,0,.16.08.25.22.09.15.1.26.03.34-1.38,1.34-2.78,2.32-4.2,2.91-1.42.6-2.97.9-4.65.9-2.35,0-4.39-.5-6.1-1.48-1.72-.99-3.02-2.31-3.92-3.98-.9-1.66-1.34-3.46-1.34-5.4,0-2.17.54-4.16,1.62-5.99,1.08-1.83,2.58-3.28,4.51-4.34,1.92-1.06,4.1-1.6,6.52-1.6s4.11.52,5.38,1.57c1.27,1.05,1.9,2.67,1.9,4.87,0,1.16-.21,1.74-.62,1.74l-13.6.06c-.04.26-.06.69-.06,1.29,0,3.29.76,5.86,2.27,7.73,1.51,1.87,3.69,2.8,6.52,2.8,1.01,0,1.87-.11,2.58-.34.71-.22,1.64-.63,2.8-1.23l.11-.06ZM118.19,120.6c-.82,1.06-1.36,2.53-1.62,4.4l8.12-.11c-.04-1.9-.32-3.36-.84-4.37-.52-1.01-1.38-1.51-2.58-1.51s-2.26.53-3.08,1.6ZM121.77,113.57c-.11,0-.22-.03-.31-.08-.09-.06-.12-.1-.08-.14l1.85-13.44c.07-.15.69-.33,1.85-.53,1.16-.21,2.13-.31,2.91-.31.52,0,.76.08.73.22l-6.72,14.17c0,.08-.08.11-.22.11Z"/>
    <path class="cls-1" d="M185.88,139.66c0,.22-.09.34-.28.34-.75,0-1.9-.04-3.47-.11-1.64-.07-2.82-.11-3.53-.11-.93,0-2.07.04-3.42.11-1.27.08-2.28.11-3.02.11-.15,0-.22-.11-.22-.34s.07-.34.22-.34c.97,0,1.67-.1,2.1-.31.43-.21.64-.57.64-1.09,0-.63-.37-1.7-1.12-3.19l-3.81-7.56h-13.77l-2.18,4.87c-.49,1.08-.73,2.09-.73,3.02,0,1.34.48,2.39,1.43,3.13.95.75,2.23,1.12,3.83,1.12.19,0,.28.11.28.34s-.09.34-.28.34c-.67,0-1.64-.04-2.91-.11-1.42-.07-2.65-.11-3.7-.11s-2.22.04-3.64.11c-1.27.08-2.3.11-3.08.11-.15,0-.22-.11-.22-.34s.08-.34.22-.34c1.04,0,1.92-.21,2.63-.64.71-.43,1.42-1.19,2.13-2.3.71-1.1,1.55-2.73,2.52-4.9l12.15-26.71c.07-.11.24-.17.5-.17.3,0,.47.06.5.17l14,27.55c1.3,2.65,2.39,4.48,3.25,5.49.86,1.01,1.75,1.51,2.69,1.51.19,0,.28.11.28.34ZM156.93,125.61h12.21l-6.44-12.77-5.77,12.77Z"/>
    <path class="cls-1" d="M203.68,136.08c.15,0,.27.08.36.22.09.15.08.26-.03.34-1.38,1.38-2.73,2.4-4.03,3.05-1.31.65-2.69.98-4.14.98-1.64,0-3.04-.39-4.2-1.18-1.16-.78-1.74-2.11-1.74-3.98v-12.43c0-1.16-.21-1.96-.62-2.41-.41-.45-1.16-.67-2.24-.67-.04,0-.08-.06-.14-.17-.06-.11-.08-.22-.08-.34,0-.15.02-.27.06-.36.04-.09.09-.14.17-.14,1.9-.07,3.44-.48,4.62-1.23,1.18-.75,2.08-1.88,2.71-3.42.08-.15.23-.22.48-.22s.36.08.36.22v4.48c2.17-.04,4.59-.2,7.28-.5.07,0,.16.14.25.42.09.28.14.59.14.92,0,.37-.07.74-.2,1.09-.13.36-.27.51-.42.48-2.43-.52-4.78-.8-7.05-.84v13.27c0,1.42.36,2.46,1.09,3.14.73.67,1.69,1.01,2.88,1.01,1.49,0,2.95-.56,4.37-1.68l.11-.06Z"/>
    <path class="cls-1" d="M232.07,139.66c0,.22-.08.34-.22.34-.97,0-1.75-.02-2.35-.06l-3.25-.06-3.36.06c-.56.04-1.33.06-2.3.06-.08,0-.11-.11-.11-.34s.04-.34.11-.34c1.16,0,1.95-.27,2.38-.81.43-.54.64-1.56.64-3.05v-8.06c0-2.02-.37-3.51-1.12-4.48-.75-.97-1.9-1.46-3.47-1.46-.9,0-1.82.19-2.77.56-.95.37-1.78.88-2.49,1.51v11.93c0,1.49.21,2.51.64,3.05.43.54,1.22.81,2.38.81.15,0,.22.11.22.34s-.08.34-.22.34c-.97,0-1.75-.02-2.35-.06l-3.25-.06-3.36.06c-.56.04-1.33.06-2.3.06-.08,0-.11-.11-.11-.34s.04-.34.11-.34c1.16,0,1.95-.27,2.38-.81.43-.54.64-1.56.64-3.05v-28.44c0-1.31-.12-2.24-.36-2.8-.24-.56-.66-.84-1.26-.84-.52,0-1.23.21-2.13.62h-.06c-.11,0-.21-.1-.31-.31-.09-.21-.1-.33-.03-.36l8.17-3.86.28-.06c.19,0,.38.08.59.25s.31.33.31.48v22.17c2.65-3.06,5.49-4.59,8.51-4.59,2.02,0,3.61.64,4.79,1.93,1.18,1.29,1.76,2.98,1.76,5.07v10.75c0,1.49.21,2.51.64,3.05s1.22.81,2.38.81c.15,0,.22.11.22.34Z"/>
    <path class="cls-1" d="M254.58,136.3c.07,0,.16.08.25.22.09.15.1.26.03.34-1.38,1.34-2.78,2.32-4.2,2.91-1.42.6-2.97.9-4.65.9-2.35,0-4.39-.5-6.1-1.48-1.72-.99-3.02-2.31-3.92-3.98-.9-1.66-1.34-3.46-1.34-5.4,0-2.17.54-4.16,1.62-5.99,1.08-1.83,2.58-3.28,4.51-4.34,1.92-1.06,4.1-1.6,6.52-1.6s4.11.52,5.38,1.57c1.27,1.05,1.9,2.67,1.9,4.87,0,1.16-.21,1.74-.62,1.74l-13.6.06c-.04.26-.06.69-.06,1.29,0,3.29.76,5.86,2.27,7.73,1.51,1.87,3.69,2.8,6.52,2.8,1.01,0,1.87-.11,2.58-.34.71-.22,1.64-.63,2.8-1.23l.11-.06ZM242.09,120.6c-.82,1.06-1.36,2.53-1.62,4.4l8.12-.11c-.04-1.9-.32-3.36-.84-4.37s-1.38-1.51-2.58-1.51-2.26.53-3.08,1.6Z"/>
    <path class="cls-1" d="M284.92,139.66c0,.22-.06.34-.17.34-.97,0-1.74-.02-2.3-.06l-3.36-.06-3.25.06c-.6.04-1.38.06-2.35.06-.11,0-.17-.11-.17-.34s.06-.34.17-.34c1.16,0,1.94-.27,2.35-.81.41-.54.62-1.56.62-3.05v-8.06c0-2.02-.36-3.51-1.09-4.48s-1.88-1.46-3.44-1.46c-.9,0-1.82.19-2.77.56-.95.37-1.78.88-2.49,1.51v11.93c0,1.49.21,2.51.64,3.05.43.54,1.22.81,2.38.81.11,0,.17.11.17.34s-.06.34-.17.34c-.97,0-1.74-.02-2.3-.06l-3.36-.06-3.3.06c-.56.04-1.33.06-2.3.06-.11,0-.17-.11-.17-.34s.06-.34.17-.34c1.16,0,1.94-.27,2.35-.81.41-.54.62-1.56.62-3.05v-10.53c0-1.16-.14-2.01-.42-2.55-.28-.54-.72-.81-1.32-.81-.63,0-1.53.26-2.69.78h-.11c-.11,0-.2-.09-.25-.28-.06-.19-.05-.3.03-.34l7.78-3.81c.22-.07.35-.11.39-.11.41,0,.8.4,1.18,1.2.37.8.6,1.89.67,3.28,2.58-3.06,5.41-4.59,8.51-4.59,2.02,0,3.61.64,4.79,1.93,1.18,1.29,1.76,2.98,1.76,5.07v10.75c0,1.49.21,2.51.64,3.05s1.22.81,2.38.81c.11,0,.17.11.17.34Z"/>
    <path class="cls-1" d="M309.16,136.98c.15,0,.25.08.31.25.06.17,0,.29-.14.36l-5.77,2.74c-.15.07-.34.11-.56.11-.6,0-1.17-.32-1.71-.95-.54-.63-.92-1.49-1.15-2.58l-2.41,1.68c-.86.63-1.66,1.09-2.41,1.37-.75.28-1.59.42-2.52.42-1.61,0-2.82-.35-3.64-1.06-.82-.71-1.23-1.7-1.23-2.97,0-1.01.24-1.82.73-2.44.48-.62,1.09-1.1,1.82-1.46.73-.35,1.74-.76,3.05-1.2l1.4-.5,5.04-1.85v-3.19c0-2.39-.2-4.12-.59-5.21-.39-1.08-1.06-1.62-1.99-1.62-1.98,0-3.1,1.53-3.36,4.59-.11,1.12-.44,1.92-.98,2.41-.54.49-1.3.73-2.27.73s-1.61-.2-2.04-.59c-.43-.39-.64-.91-.64-1.54,0-1.12.65-2.19,1.96-3.22,1.31-1.03,2.88-1.86,4.73-2.49,1.85-.63,3.48-.95,4.9-.95,1.64,0,2.98.51,4,1.54,1.03,1.03,1.54,2.58,1.54,4.67v9.91c0,1.08.2,1.92.59,2.52.39.6.94.9,1.65.9.52,0,1.06-.13,1.62-.39h.06ZM300.04,135.97c-.04-.15-.06-.39-.06-.73v-5.38l-2.41,1.12c-.11.04-.49.18-1.12.42-.64.24-1.19.64-1.65,1.2s-.7,1.21-.7,1.96c0,.9.29,1.6.87,2.1s1.24.76,1.99.76c.6,0,1.21-.21,1.85-.62l1.23-.84Z"/>
  </g>
  <g>
    <path class="cls-1" d="M31.3,167.34v-6.9h25.91v6.9h-8.78v23.33h-8.34v-23.33h-8.78Z"/>
    <path class="cls-1" d="M59.95,190.67v-30.23h8.34v11.38h10.43v-11.38h8.32v30.23h-8.32v-11.95h-10.43v11.95h-8.34Z"/>
    <path class="cls-1" d="M90.56,190.67v-30.23h22.7v6.9h-14.36v4.81h13.21v6.69h-13.21v4.93h14.32v6.9h-22.66Z"/>
    <path class="cls-1" d="M124.38,190.67v-30.23h12.76l2.72,9.45c.23.81.5,1.84.8,3.08.3,1.24.62,2.57.93,3.97.32,1.4.61,2.74.86,4.02s.47,2.36.63,3.24h-1.89c.16-.88.37-1.96.63-3.24s.54-2.62.85-4.02c.31-1.4.62-2.72.91-3.97.3-1.25.56-2.27.79-3.08l2.68-9.45h12.78v30.23h-8.28v-11.69c0-.69.02-1.59.05-2.71.03-1.12.07-2.34.11-3.67.04-1.33.08-2.67.11-4.03.03-1.35.05-2.61.05-3.77h.75c-.27,1.22-.57,2.5-.89,3.86s-.65,2.68-.98,3.99c-.33,1.3-.65,2.5-.94,3.6-.3,1.1-.55,2.01-.77,2.74l-3.51,11.69h-6.82l-3.57-11.69c-.22-.73-.48-1.64-.78-2.74-.3-1.1-.63-2.3-.96-3.6-.34-1.31-.68-2.63-1.01-3.99s-.64-2.64-.91-3.86h.85c0,1.16.02,2.42.05,3.77.03,1.35.07,2.69.11,4.03.04,1.33.08,2.56.11,3.67.03,1.12.05,2.02.05,2.71v11.69h-8.28Z"/>
    <path class="cls-1" d="M162.01,190.67l10-30.23h11.28l10.22,30.23h-9.41l-3.45-11.73c-.74-2.54-1.45-5.11-2.13-7.71-.68-2.6-1.33-5.24-1.95-7.93h2.09c-.62,2.69-1.26,5.34-1.91,7.93-.65,2.6-1.35,5.17-2.09,7.71l-3.45,11.73h-9.21ZM169.46,185.33v-6.33h16.64v6.33h-16.64Z"/>
    <path class="cls-1" d="M195.69,190.67v-30.23h8.74l7.3,11.87c.45.74.93,1.59,1.45,2.54.52.95,1.04,1.98,1.57,3.09.53,1.12,1.04,2.29,1.54,3.52l-.89,1.3c-.07-1.1-.14-2.35-.2-3.76-.07-1.41-.12-2.8-.17-4.15-.05-1.35-.07-2.46-.07-3.33v-11.08h8.44v30.23h-8.74l-6.8-11.04c-.57-.93-1.15-1.93-1.73-2.98-.59-1.06-1.19-2.21-1.81-3.46-.62-1.25-1.27-2.59-1.96-4.03l1.3-.28c.11,1.42.2,2.82.27,4.21s.12,2.65.15,3.78c.03,1.14.04,2.06.04,2.76v11.04h-8.44Z"/>
    <path class="cls-1" d="M239.96,191.09c-2.61,0-4.89-.46-6.85-1.38-1.95-.92-3.47-2.22-4.55-3.91-1.08-1.68-1.62-3.67-1.62-5.95v-19.42h8.2v18.73c0,.95.21,1.78.63,2.5.42.72.99,1.29,1.71,1.7.72.41,1.55.62,2.48.62s1.79-.21,2.52-.62c.73-.41,1.3-.98,1.71-1.7.41-.72.62-1.56.62-2.5v-18.73h8.2v19.42c0,2.29-.54,4.27-1.62,5.95-1.08,1.68-2.6,2.99-4.55,3.91-1.96.92-4.24,1.38-6.87,1.38Z"/>
    <path class="cls-1" d="M253.69,190.67l10-30.23h11.28l10.22,30.23h-9.41l-3.45-11.73c-.74-2.54-1.45-5.11-2.13-7.71-.68-2.6-1.33-5.24-1.95-7.93h2.09c-.62,2.69-1.26,5.34-1.91,7.93-.65,2.6-1.35,5.17-2.09,7.71l-3.45,11.73h-9.21ZM261.14,185.33v-6.33h16.64v6.33h-16.64Z"/>
    <path class="cls-1" d="M287.37,190.67v-30.23h8.34v23.33h12.66v6.9h-21Z"/>
  </g>
  <rect class="cls-1" x="31.55" y="146.07" width="276.57" height="6.2"/>
</svg>